# xmcd
#
# Track frame offsets: 
#        150
#        51774
#        81083
#        146248
#        181553
#
# Disc length: 4011 seconds
#
# Revision: 2
# Processed by: cddbd v1.5.2PL0 Copyright (c) Steve Scherf et al.
# Submitted via: ExactAudioCopyFreeDBPlugin 1.0
#
DISCID=3a0fa905
DTITLE=Various Artist - JazzPiano History CD20 - Contemporary
DYEAR=1900
DGENRE=Jazz
TTITLE0=Monty Alexander - Ellington Medley
TTITLE1=Kenny Barron - I'm Confessin'
TTITLE2=Kenny Barron and Mulgrew Miller - Softly, As In A Morning Sunris
TTITLE2=e
TTITLE3=Markus Roberts - Blues In The Evening Time
TTITLE4=Randy Weston - Medley (The Healers, Blue Moses, Little Nile, R
TTITLE4=oot Of The Nile)
EXTD=
EXTT0=
EXTT1=
EXTT2=
EXTT3=
EXTT4=
PLAYORDER=
